<svg xmlns="http://www.w3.org/2000/svg" xmlns:xlink="http://www.w3.org/1999/xlink" width="1392" height="325.796" viewBox="0 0 1392 325.796">
  <defs>
    <filter id="Caminho_198" x="48.478" y="0" width="56.474" height="56.474" filterUnits="userSpaceOnUse">
      <feOffset dy="3" input="SourceAlpha"/>
      <feGaussianBlur stdDeviation="3" result="blur"/>
      <feFlood flood-opacity="0.161"/>
      <feComposite operator="in" in2="blur"/>
      <feComposite in="SourceGraphic"/>
    </filter>
    <filter id="Caminho_200" x="43.359" y="72.449" width="65.474" height="65.475" filterUnits="userSpaceOnUse">
      <feOffset dy="3" input="SourceAlpha"/>
      <feGaussianBlur stdDeviation="4.5" result="blur-2"/>
      <feFlood flood-opacity="0.161"/>
      <feComposite operator="in" in2="blur-2"/>
      <feComposite in="SourceGraphic"/>
    </filter>
    <filter id="Caminho_205" x="43.978" y="226.347" width="65.474" height="65.474" filterUnits="userSpaceOnUse">
      <feOffset dy="3" input="SourceAlpha"/>
      <feGaussianBlur stdDeviation="4.5" result="blur-3"/>
      <feFlood flood-opacity="0.161"/>
      <feComposite operator="in" in2="blur-3"/>
      <feComposite in="SourceGraphic"/>
    </filter>
    <filter id="Caminho_215" x="86.333" y="38.474" width="56.474" height="56.475" filterUnits="userSpaceOnUse">
      <feOffset dy="3" input="SourceAlpha"/>
      <feGaussianBlur stdDeviation="3" result="blur-4"/>
      <feFlood flood-opacity="0.161"/>
      <feComposite operator="in" in2="blur-4"/>
      <feComposite in="SourceGraphic"/>
    </filter>
    <filter id="Caminho_216" x="86.333" y="115.423" width="56.474" height="56.475" filterUnits="userSpaceOnUse">
      <feOffset dy="3" input="SourceAlpha"/>
      <feGaussianBlur stdDeviation="3" result="blur-5"/>
      <feFlood flood-opacity="0.161"/>
      <feComposite operator="in" in2="blur-5"/>
      <feComposite in="SourceGraphic"/>
    </filter>
    <filter id="Caminho_203" x="47.859" y="153.898" width="56.474" height="56.475" filterUnits="userSpaceOnUse">
      <feOffset dy="3" input="SourceAlpha"/>
      <feGaussianBlur stdDeviation="3" result="blur-6"/>
      <feFlood flood-opacity="0.161"/>
      <feComposite operator="in" in2="blur-6"/>
      <feComposite in="SourceGraphic"/>
    </filter>
    <filter id="Caminho_217" x="87.336" y="269.321" width="56.474" height="56.474" filterUnits="userSpaceOnUse">
      <feOffset dy="3" input="SourceAlpha"/>
      <feGaussianBlur stdDeviation="3" result="blur-7"/>
      <feFlood flood-opacity="0.161"/>
      <feComposite operator="in" in2="blur-7"/>
      <feComposite in="SourceGraphic"/>
    </filter>
    <filter id="Caminho_202" x="4.5" y="110.923" width="65.474" height="65.475" filterUnits="userSpaceOnUse">
      <feOffset dy="3" input="SourceAlpha"/>
      <feGaussianBlur stdDeviation="4.5" result="blur-8"/>
      <feFlood flood-opacity="0.161"/>
      <feComposite operator="in" in2="blur-8"/>
      <feComposite in="SourceGraphic"/>
    </filter>
    <filter id="Caminho_204" x="4.5" y="187.872" width="65.474" height="65.475" filterUnits="userSpaceOnUse">
      <feOffset dy="3" input="SourceAlpha"/>
      <feGaussianBlur stdDeviation="4.5" result="blur-9"/>
      <feFlood flood-opacity="0.161"/>
      <feComposite operator="in" in2="blur-9"/>
      <feComposite in="SourceGraphic"/>
    </filter>
    <filter id="Caminho_201" x="4.5" y="66.449" width="65.474" height="65.475" filterUnits="userSpaceOnUse">
      <feOffset dy="-3" input="SourceAlpha"/>
      <feGaussianBlur stdDeviation="4.5" result="blur-10"/>
      <feFlood flood-opacity="0.161"/>
      <feComposite operator="in" in2="blur-10"/>
      <feComposite in="SourceGraphic"/>
    </filter>
    <filter id="Caminho_199" x="0" y="0" width="56.474" height="56.474" filterUnits="userSpaceOnUse">
      <feOffset dx="-9" dy="3" input="SourceAlpha"/>
      <feGaussianBlur stdDeviation="3" result="blur-11"/>
      <feFlood flood-opacity="0.161"/>
      <feComposite operator="in" in2="blur-11"/>
      <feComposite in="SourceGraphic"/>
    </filter>
    <filter id="Caminho_207" x="9.619" y="269.322" width="56.474" height="56.474" filterUnits="userSpaceOnUse">
      <feOffset dy="3" input="SourceAlpha"/>
      <feGaussianBlur stdDeviation="3" result="blur-12"/>
      <feFlood flood-opacity="0.161"/>
      <feComposite operator="in" in2="blur-12"/>
      <feComposite in="SourceGraphic"/>
    </filter>
    <filter id="Caminho_198-2" x="1296.667" y="0" width="56.474" height="56.474" filterUnits="userSpaceOnUse">
      <feOffset dy="3" input="SourceAlpha"/>
      <feGaussianBlur stdDeviation="3" result="blur-13"/>
      <feFlood flood-opacity="0.161"/>
      <feComposite operator="in" in2="blur-13"/>
      <feComposite in="SourceGraphic"/>
    </filter>
    <filter id="Caminho_200-2" x="1291.548" y="72.449" width="65.474" height="65.475" filterUnits="userSpaceOnUse">
      <feOffset dy="3" input="SourceAlpha"/>
      <feGaussianBlur stdDeviation="4.5" result="blur-14"/>
      <feFlood flood-opacity="0.161"/>
      <feComposite operator="in" in2="blur-14"/>
      <feComposite in="SourceGraphic"/>
    </filter>
    <filter id="Caminho_205-2" x="1292.167" y="226.347" width="65.474" height="65.474" filterUnits="userSpaceOnUse">
      <feOffset dy="3" input="SourceAlpha"/>
      <feGaussianBlur stdDeviation="4.5" result="blur-15"/>
      <feFlood flood-opacity="0.161"/>
      <feComposite operator="in" in2="blur-15"/>
      <feComposite in="SourceGraphic"/>
    </filter>
    <filter id="Caminho_215-2" x="1334.522" y="38.474" width="56.474" height="56.475" filterUnits="userSpaceOnUse">
      <feOffset dy="3" input="SourceAlpha"/>
      <feGaussianBlur stdDeviation="3" result="blur-16"/>
      <feFlood flood-opacity="0.161"/>
      <feComposite operator="in" in2="blur-16"/>
      <feComposite in="SourceGraphic"/>
    </filter>
    <filter id="Caminho_216-2" x="1334.522" y="115.423" width="56.474" height="56.475" filterUnits="userSpaceOnUse">
      <feOffset dy="3" input="SourceAlpha"/>
      <feGaussianBlur stdDeviation="3" result="blur-17"/>
      <feFlood flood-opacity="0.161"/>
      <feComposite operator="in" in2="blur-17"/>
      <feComposite in="SourceGraphic"/>
    </filter>
    <filter id="Caminho_203-2" x="1296.048" y="153.898" width="56.474" height="56.475" filterUnits="userSpaceOnUse">
      <feOffset dy="3" input="SourceAlpha"/>
      <feGaussianBlur stdDeviation="3" result="blur-18"/>
      <feFlood flood-opacity="0.161"/>
      <feComposite operator="in" in2="blur-18"/>
      <feComposite in="SourceGraphic"/>
    </filter>
    <filter id="Caminho_217-2" x="1335.526" y="269.321" width="56.474" height="56.474" filterUnits="userSpaceOnUse">
      <feOffset dy="3" input="SourceAlpha"/>
      <feGaussianBlur stdDeviation="3" result="blur-19"/>
      <feFlood flood-opacity="0.161"/>
      <feComposite operator="in" in2="blur-19"/>
      <feComposite in="SourceGraphic"/>
    </filter>
    <filter id="Caminho_202-2" x="1252.689" y="110.923" width="65.474" height="65.475" filterUnits="userSpaceOnUse">
      <feOffset dy="3" input="SourceAlpha"/>
      <feGaussianBlur stdDeviation="4.5" result="blur-20"/>
      <feFlood flood-opacity="0.161"/>
      <feComposite operator="in" in2="blur-20"/>
      <feComposite in="SourceGraphic"/>
    </filter>
    <filter id="Caminho_204-2" x="1252.689" y="187.872" width="65.474" height="65.475" filterUnits="userSpaceOnUse">
      <feOffset dy="3" input="SourceAlpha"/>
      <feGaussianBlur stdDeviation="4.5" result="blur-21"/>
      <feFlood flood-opacity="0.161"/>
      <feComposite operator="in" in2="blur-21"/>
      <feComposite in="SourceGraphic"/>
    </filter>
    <filter id="Caminho_201-2" x="1252.689" y="66.449" width="65.474" height="65.475" filterUnits="userSpaceOnUse">
      <feOffset dy="-3" input="SourceAlpha"/>
      <feGaussianBlur stdDeviation="4.5" result="blur-22"/>
      <feFlood flood-opacity="0.161"/>
      <feComposite operator="in" in2="blur-22"/>
      <feComposite in="SourceGraphic"/>
    </filter>
    <filter id="Caminho_199-2" x="1248.189" y="0" width="56.474" height="56.474" filterUnits="userSpaceOnUse">
      <feOffset dx="-9" dy="3" input="SourceAlpha"/>
      <feGaussianBlur stdDeviation="3" result="blur-23"/>
      <feFlood flood-opacity="0.161"/>
      <feComposite operator="in" in2="blur-23"/>
      <feComposite in="SourceGraphic"/>
    </filter>
    <filter id="Caminho_207-2" x="1257.808" y="269.322" width="56.474" height="56.474" filterUnits="userSpaceOnUse">
      <feOffset dy="3" input="SourceAlpha"/>
      <feGaussianBlur stdDeviation="3" result="blur-24"/>
      <feFlood flood-opacity="0.161"/>
      <feComposite operator="in" in2="blur-24"/>
      <feComposite in="SourceGraphic"/>
    </filter>
  </defs>
  <g id="Grupo_480" data-name="Grupo 480" transform="translate(18 -1208.181)">
    <g transform="matrix(1, 0, 0, 1, -18, 1208.18)" filter="url(#Caminho_198)">
      <path id="Caminho_198-3" data-name="Caminho 198" d="M0,0H38.474V38.474H0Z" transform="translate(57.48 44.47) rotate(-90)" fill="#fff"/>
    </g>
    <g transform="matrix(1, 0, 0, 1, -18, 1208.18)" filter="url(#Caminho_200)">
      <path id="Caminho_200-3" data-name="Caminho 200" d="M0,0H38.474V38.474H0Z" transform="translate(56.86 121.42) rotate(-90)" fill="#fff"/>
    </g>
    <g transform="matrix(1, 0, 0, 1, -18, 1208.18)" filter="url(#Caminho_205)">
      <path id="Caminho_205-3" data-name="Caminho 205" d="M0,0H38.474V38.474H0Z" transform="translate(95.95 236.85) rotate(90)" fill="#fff"/>
    </g>
    <g transform="matrix(1, 0, 0, 1, -18, 1208.18)" filter="url(#Caminho_215)">
      <path id="Caminho_215-3" data-name="Caminho 215" d="M0,0H38.474V38.474H0Z" transform="translate(95.33 82.95) rotate(-90)" fill="#fff"/>
    </g>
    <g transform="matrix(1, 0, 0, 1, -18, 1208.18)" filter="url(#Caminho_216)">
      <path id="Caminho_216-3" data-name="Caminho 216" d="M0,0H38.474V38.474H0Z" transform="translate(95.33 159.9) rotate(-90)" fill="#fff"/>
    </g>
    <g transform="matrix(1, 0, 0, 1, -18, 1208.18)" filter="url(#Caminho_203)">
      <path id="Caminho_203-3" data-name="Caminho 203" d="M0,0H38.474V38.474H0Z" transform="translate(56.86 198.37) rotate(-90)" fill="#fff"/>
    </g>
    <g transform="matrix(1, 0, 0, 1, -18, 1208.18)" filter="url(#Caminho_217)">
      <path id="Caminho_217-3" data-name="Caminho 217" d="M0,0H38.474V38.474H0Z" transform="translate(134.81 275.32) rotate(90)" fill="#fff"/>
    </g>
    <g transform="matrix(1, 0, 0, 1, -18, 1208.18)" filter="url(#Caminho_202)">
      <path id="Caminho_202-3" data-name="Caminho 202" d="M0,0H38.474V38.474H0Z" transform="translate(18 159.9) rotate(-90)" fill="#fff"/>
    </g>
    <g transform="matrix(1, 0, 0, 1, -18, 1208.18)" filter="url(#Caminho_204)">
      <path id="Caminho_204-3" data-name="Caminho 204" d="M0,0H38.474V38.474H0Z" transform="translate(18 236.85) rotate(-90)" fill="#fff"/>
    </g>
    <g transform="matrix(1, 0, 0, 1, -18, 1208.18)" filter="url(#Caminho_201)">
      <path id="Caminho_201-3" data-name="Caminho 201" d="M0,0H38.474V38.474H0Z" transform="translate(18 121.42) rotate(-90)" fill="#fff"/>
    </g>
    <g transform="matrix(1, 0, 0, 1, -18, 1208.18)" filter="url(#Caminho_199)">
      <path id="Caminho_199-3" data-name="Caminho 199" d="M0,0H38.474V38.474H0Z" transform="translate(18 44.47) rotate(-90)" fill="#fff"/>
    </g>
    <g transform="matrix(1, 0, 0, 1, -18, 1208.18)" filter="url(#Caminho_207)">
      <path id="Caminho_207-3" data-name="Caminho 207" d="M0,0H38.474V38.474H0Z" transform="translate(57.09 275.32) rotate(90)" fill="#fff"/>
    </g>
  </g>
  <g id="Grupo_485" data-name="Grupo 485" transform="translate(1266.189 -1208.181)">
    <g transform="matrix(1, 0, 0, 1, -1266.19, 1208.18)" filter="url(#Caminho_198-2)">
      <path id="Caminho_198-4" data-name="Caminho 198" d="M0,0H38.474V38.474H0Z" transform="translate(1305.67 44.47) rotate(-90)" fill="#fff"/>
    </g>
    <g transform="matrix(1, 0, 0, 1, -1266.19, 1208.18)" filter="url(#Caminho_200-2)">
      <path id="Caminho_200-4" data-name="Caminho 200" d="M0,0H38.474V38.474H0Z" transform="translate(1305.05 121.42) rotate(-90)" fill="#fff"/>
    </g>
    <g transform="matrix(1, 0, 0, 1, -1266.19, 1208.18)" filter="url(#Caminho_205-2)">
      <path id="Caminho_205-4" data-name="Caminho 205" d="M0,0H38.474V38.474H0Z" transform="translate(1344.14 236.85) rotate(90)" fill="#fff"/>
    </g>
    <g transform="matrix(1, 0, 0, 1, -1266.19, 1208.18)" filter="url(#Caminho_215-2)">
      <path id="Caminho_215-4" data-name="Caminho 215" d="M0,0H38.474V38.474H0Z" transform="translate(1343.52 82.95) rotate(-90)" fill="#fff"/>
    </g>
    <g transform="matrix(1, 0, 0, 1, -1266.19, 1208.18)" filter="url(#Caminho_216-2)">
      <path id="Caminho_216-4" data-name="Caminho 216" d="M0,0H38.474V38.474H0Z" transform="translate(1343.52 159.9) rotate(-90)" fill="#fff"/>
    </g>
    <g transform="matrix(1, 0, 0, 1, -1266.19, 1208.18)" filter="url(#Caminho_203-2)">
      <path id="Caminho_203-4" data-name="Caminho 203" d="M0,0H38.474V38.474H0Z" transform="translate(1305.05 198.37) rotate(-90)" fill="#fff"/>
    </g>
    <g transform="matrix(1, 0, 0, 1, -1266.19, 1208.18)" filter="url(#Caminho_217-2)">
      <path id="Caminho_217-4" data-name="Caminho 217" d="M0,0H38.474V38.474H0Z" transform="translate(1383 275.32) rotate(90)" fill="#fff"/>
    </g>
    <g transform="matrix(1, 0, 0, 1, -1266.19, 1208.18)" filter="url(#Caminho_202-2)">
      <path id="Caminho_202-4" data-name="Caminho 202" d="M0,0H38.474V38.474H0Z" transform="translate(1266.19 159.9) rotate(-90)" fill="#fff"/>
    </g>
    <g transform="matrix(1, 0, 0, 1, -1266.19, 1208.18)" filter="url(#Caminho_204-2)">
      <path id="Caminho_204-4" data-name="Caminho 204" d="M0,0H38.474V38.474H0Z" transform="translate(1266.19 236.85) rotate(-90)" fill="#fff"/>
    </g>
    <g transform="matrix(1, 0, 0, 1, -1266.19, 1208.18)" filter="url(#Caminho_201-2)">
      <path id="Caminho_201-4" data-name="Caminho 201" d="M0,0H38.474V38.474H0Z" transform="translate(1266.19 121.42) rotate(-90)" fill="#fff"/>
    </g>
    <g transform="matrix(1, 0, 0, 1, -1266.19, 1208.18)" filter="url(#Caminho_199-2)">
      <path id="Caminho_199-4" data-name="Caminho 199" d="M0,0H38.474V38.474H0Z" transform="translate(1266.19 44.47) rotate(-90)" fill="#fff"/>
    </g>
    <g transform="matrix(1, 0, 0, 1, -1266.19, 1208.18)" filter="url(#Caminho_207-2)">
      <path id="Caminho_207-4" data-name="Caminho 207" d="M0,0H38.474V38.474H0Z" transform="translate(1305.28 275.32) rotate(90)" fill="#fff"/>
    </g>
  </g>
</svg>
