<svg xmlns="http://www.w3.org/2000/svg" width="145.951" height="30.283" viewBox="0 0 145.951 30.283">
  <g id="Grupo_2" data-name="Grupo 2" transform="translate(-313.962 -515.362)">
    <g id="Grupo_1" data-name="Grupo 1" transform="translate(313.962 515.375)">
      <rect id="Retângulo_2" data-name="Retângulo 2" width="3.782" height="3.782" transform="translate(0 0)" fill="#8019b3"/>
      <rect id="Retângulo_3" data-name="Retângulo 3" width="3.782" height="3.782" transform="translate(3.782 0)" fill="#8019b3"/>
      <rect id="Retângulo_4" data-name="Retângulo 4" width="3.782" height="3.782" transform="translate(15.129 0)" fill="#fb5223"/>
      <rect id="Retângulo_5" data-name="Retângulo 5" width="3.782" height="3.782" transform="translate(18.911 0)" fill="#fb5223"/>
      <rect id="Retângulo_6" data-name="Retângulo 6" width="3.782" height="3.782" transform="translate(37.822 0)" fill="#ffc31f"/>
      <rect id="Retângulo_7" data-name="Retângulo 7" width="3.782" height="3.782" transform="translate(45.387 0)" fill="#8ac926"/>
      <rect id="Retângulo_8" data-name="Retângulo 8" width="3.782" height="3.782" transform="translate(49.169 0)" fill="#8ac926"/>
      <rect id="Retângulo_9" data-name="Retângulo 9" width="3.782" height="3.782" transform="translate(52.951 0)" fill="#8ac926"/>
      <rect id="Retângulo_10" data-name="Retângulo 10" width="3.782" height="3.782" transform="translate(60.516 0)" fill="#1985a1"/>
      <rect id="Retângulo_11" data-name="Retângulo 11" width="3.782" height="3.782" transform="translate(64.298 0)" fill="#1985a1"/>
      <rect id="Retângulo_12" data-name="Retângulo 12" width="3.782" height="3.782" transform="translate(7.564 3.782)" fill="#8019b3"/>
      <rect id="Retângulo_13" data-name="Retângulo 13" width="3.782" height="3.782" transform="translate(15.129 3.782)" fill="#fb5223"/>
      <rect id="Retângulo_14" data-name="Retângulo 14" width="3.782" height="3.782" transform="translate(18.911 3.782)" fill="#fb5223"/>
      <rect id="Retângulo_15" data-name="Retângulo 15" width="3.782" height="3.782" transform="translate(26.476 3.782)" fill="#ffc31f"/>
      <rect id="Retângulo_16" data-name="Retângulo 16" width="3.782" height="3.782" transform="translate(34.04 3.782)" fill="#ffc31f"/>
      <rect id="Retângulo_17" data-name="Retângulo 17" width="3.782" height="3.782" transform="translate(37.822 3.782)" fill="#ffc31f"/>
      <rect id="Retângulo_18" data-name="Retângulo 18" width="3.782" height="3.782" transform="translate(45.387 3.782)" fill="#8ac926"/>
      <rect id="Retângulo_19" data-name="Retângulo 19" width="3.782" height="3.782" transform="translate(52.951 3.782)" fill="#1985a1"/>
      <rect id="Retângulo_20" data-name="Retângulo 20" width="3.782" height="3.782" transform="translate(64.298 3.782)" fill="#1985a1"/>
      <rect id="Retângulo_21" data-name="Retângulo 21" width="3.782" height="3.782" transform="translate(0 7.564)" fill="#8019b3"/>
      <rect id="Retângulo_22" data-name="Retângulo 22" width="3.782" height="3.782" transform="translate(11.347 7.564)" fill="#8019b3"/>
      <rect id="Retângulo_23" data-name="Retângulo 23" width="3.782" height="3.782" transform="translate(15.129 7.564)" fill="#fb5223"/>
      <rect id="Retângulo_24" data-name="Retângulo 24" width="3.782" height="3.782" transform="translate(22.693 7.564)" fill="#fb5223"/>
      <rect id="Retângulo_25" data-name="Retângulo 25" width="3.782" height="3.782" transform="translate(26.476 7.564)" fill="#fb5223"/>
      <rect id="Retângulo_26" data-name="Retângulo 26" width="3.782" height="3.782" transform="translate(41.605 7.564)" fill="#8ac926"/>
      <rect id="Retângulo_27" data-name="Retângulo 27" width="3.782" height="3.782" transform="translate(45.387 7.564)" fill="#8ac926"/>
      <rect id="Retângulo_28" data-name="Retângulo 28" width="3.782" height="3.782" transform="translate(49.169 7.564)" fill="#8ac926"/>
      <rect id="Retângulo_29" data-name="Retângulo 29" width="3.782" height="3.782" transform="translate(56.733 7.564)" fill="#1985a1"/>
      <rect id="Retângulo_30" data-name="Retângulo 30" width="3.782" height="3.782" transform="translate(60.516 7.564)" fill="#1985a1"/>
      <rect id="Retângulo_31" data-name="Retângulo 31" width="3.782" height="3.782" transform="translate(18.911 11.347)" fill="#fb5223"/>
      <rect id="Retângulo_32" data-name="Retângulo 32" width="3.782" height="3.782" transform="translate(22.693 11.347)" fill="#fb5223"/>
      <rect id="Retângulo_33" data-name="Retângulo 33" width="3.782" height="3.782" transform="translate(26.476 11.347)" fill="#ffc31f"/>
      <rect id="Retângulo_34" data-name="Retângulo 34" width="3.782" height="3.782" transform="translate(30.258 11.347)" fill="#ffc31f"/>
      <rect id="Retângulo_35" data-name="Retângulo 35" width="3.782" height="3.782" transform="translate(37.822 11.347)" fill="#ffc31f"/>
      <rect id="Retângulo_36" data-name="Retângulo 36" width="3.782" height="3.782" transform="translate(41.605 11.347)" fill="#8ac926"/>
      <rect id="Retângulo_37" data-name="Retângulo 37" width="3.782" height="3.782" transform="translate(45.387 11.347)" fill="#8ac926"/>
      <rect id="Retângulo_38" data-name="Retângulo 38" width="3.782" height="3.782" transform="translate(49.169 11.347)" fill="#8ac926"/>
      <rect id="Retângulo_39" data-name="Retângulo 39" width="3.782" height="3.782" transform="translate(52.951 11.347)" fill="#8ac926"/>
      <rect id="Retângulo_40" data-name="Retângulo 40" width="3.782" height="3.782" transform="translate(0 15.129)" fill="#8019b3"/>
      <rect id="Retângulo_41" data-name="Retângulo 41" width="3.782" height="3.782" transform="translate(3.782 15.129)" fill="#8019b3"/>
      <rect id="Retângulo_42" data-name="Retângulo 42" width="3.782" height="3.782" transform="translate(7.564 15.129)" fill="#8019b3"/>
      <rect id="Retângulo_43" data-name="Retângulo 43" width="3.782" height="3.782" transform="translate(26.476 15.129)" fill="#ffc31f"/>
      <rect id="Retângulo_44" data-name="Retângulo 44" width="3.782" height="3.782" transform="translate(37.822 15.129)" fill="#ffc31f"/>
      <rect id="Retângulo_45" data-name="Retângulo 45" width="3.782" height="3.782" transform="translate(45.387 15.129)" fill="#8ac926"/>
      <rect id="Retângulo_46" data-name="Retângulo 46" width="3.782" height="3.782" transform="translate(49.169 15.129)" fill="#8ac926"/>
      <rect id="Retângulo_47" data-name="Retângulo 47" width="3.782" height="3.782" transform="translate(60.516 15.129)" fill="#1985a1"/>
      <rect id="Retângulo_48" data-name="Retângulo 48" width="3.782" height="3.782" transform="translate(64.298 15.129)" fill="#1985a1"/>
      <rect id="Retângulo_49" data-name="Retângulo 49" width="3.782" height="3.782" transform="translate(11.347 18.911)" fill="#fb5223"/>
      <rect id="Retângulo_50" data-name="Retângulo 50" width="3.782" height="3.782" transform="translate(15.129 18.911)" fill="#fb5223"/>
      <rect id="Retângulo_51" data-name="Retângulo 51" width="3.782" height="3.782" transform="translate(18.911 18.911)" fill="#fb5223"/>
      <rect id="Retângulo_52" data-name="Retângulo 52" width="3.782" height="3.782" transform="translate(22.693 18.911)" fill="#fb5223"/>
      <rect id="Retângulo_53" data-name="Retângulo 53" width="3.782" height="3.782" transform="translate(49.169 18.911)" fill="#8ac926"/>
      <rect id="Retângulo_54" data-name="Retângulo 54" width="3.782" height="3.782" transform="translate(52.951 18.911)" fill="#1985a1"/>
      <rect id="Retângulo_55" data-name="Retângulo 55" width="3.782" height="3.782" transform="translate(60.516 18.911)" fill="#1985a1"/>
      <rect id="Retângulo_56" data-name="Retângulo 56" width="3.782" height="3.782" transform="translate(0 22.693)" fill="#8019b3"/>
      <rect id="Retângulo_57" data-name="Retângulo 57" width="3.782" height="3.782" transform="translate(7.564 22.693)" fill="#8019b3"/>
      <rect id="Retângulo_58" data-name="Retângulo 58" width="3.782" height="3.782" transform="translate(11.347 22.693)" fill="#8019b3"/>
      <rect id="Retângulo_59" data-name="Retângulo 59" width="3.782" height="3.782" transform="translate(15.129 22.693)" fill="#fb5223"/>
      <rect id="Retângulo_60" data-name="Retângulo 60" width="3.782" height="3.782" transform="translate(22.693 22.693)" fill="#fb5223"/>
      <rect id="Retângulo_61" data-name="Retângulo 61" width="3.782" height="3.782" transform="translate(26.476 22.693)" fill="#ffc31f"/>
      <rect id="Retângulo_62" data-name="Retângulo 62" width="3.782" height="3.782" transform="translate(30.258 22.693)" fill="#ffc31f"/>
      <rect id="Retângulo_63" data-name="Retângulo 63" width="3.782" height="3.782" transform="translate(34.04 22.693)" fill="#ffc31f"/>
      <rect id="Retângulo_64" data-name="Retângulo 64" width="3.782" height="3.782" transform="translate(37.822 22.693)" fill="#ffc31f"/>
      <rect id="Retângulo_65" data-name="Retângulo 65" width="3.782" height="3.782" transform="translate(45.387 22.693)" fill="#8ac926"/>
      <rect id="Retângulo_66" data-name="Retângulo 66" width="3.782" height="3.782" transform="translate(52.951 22.693)" fill="#8ac926"/>
      <rect id="Retângulo_67" data-name="Retângulo 67" width="3.782" height="3.782" transform="translate(56.733 22.693)" fill="#1985a1"/>
      <rect id="Retângulo_68" data-name="Retângulo 68" width="3.782" height="3.782" transform="translate(64.298 22.693)" fill="#1985a1"/>
      <rect id="Retângulo_69" data-name="Retângulo 69" width="3.782" height="3.782" transform="translate(3.782 26.476)" fill="#8019b3"/>
      <rect id="Retângulo_70" data-name="Retângulo 70" width="3.782" height="3.782" transform="translate(7.564 26.476)" fill="#8019b3"/>
      <rect id="Retângulo_71" data-name="Retângulo 71" width="3.782" height="3.782" transform="translate(22.693 26.476)" fill="#fb5223"/>
      <rect id="Retângulo_72" data-name="Retângulo 72" width="3.782" height="3.782" transform="translate(26.476 26.476)" fill="#ffc31f"/>
      <rect id="Retângulo_73" data-name="Retângulo 73" width="3.782" height="3.782" transform="translate(30.258 26.476)" fill="#ffc31f"/>
      <rect id="Retângulo_74" data-name="Retângulo 74" width="3.782" height="3.782" transform="translate(45.387 26.476)" fill="#8ac926"/>
      <rect id="Retângulo_75" data-name="Retângulo 75" width="3.782" height="3.782" transform="translate(49.169 26.476)" fill="#8ac926"/>
    </g>
    <path id="Caminho_1" data-name="Caminho 1" d="M578.252,545.645V524.157a8.989,8.989,0,0,1,1.133-4.543,8.355,8.355,0,0,1,3.069-3.117,8.518,8.518,0,0,1,4.391-1.136h10.038v4.108h-9.519a4.356,4.356,0,0,0-3.328,1.329,4.706,4.706,0,0,0-1.251,3.359v6.214h14.069v3.782l-14.069-.075v11.567Z" transform="translate(-188.153 0)"/>
    <path id="Caminho_2" data-name="Caminho 2" d="M756.025,545.645V524.157a8.989,8.989,0,0,1,1.133-4.543,8.355,8.355,0,0,1,3.069-3.117,8.518,8.518,0,0,1,4.391-1.136h9.864v4.108h-9.345a4.355,4.355,0,0,0-3.328,1.329,4.706,4.706,0,0,0-1.251,3.359v6.214h14.069v3.782H760.557v11.492Z" transform="translate(-314.714 0)"/>
    <path id="Caminho_3" data-name="Caminho 3" d="M680.4,520.813a10.477,10.477,0,0,0-4.009-3.846,11.478,11.478,0,0,0-5.594-1.375H657.048v3.963h13.193a7.872,7.872,0,0,1,3.613.839,6.39,6.39,0,0,1,2.611,2.4,7.151,7.151,0,0,1,.956,3.8,7.042,7.042,0,0,1-.979,3.776,6.364,6.364,0,0,1-2.611,2.4,8.019,8.019,0,0,1-3.636.816h-8.671v-3.052h-4.475v15.208h4.475v-8.194h9.183a11.605,11.605,0,0,0,5.734-1.4,10.47,10.47,0,0,0,3.986-3.869,11.847,11.847,0,0,0-.023-11.468Z" transform="translate(-244.25 -0.164)"/>
  </g>
</svg>
